HIERARCHY
ROOT Hips
{
  OFFSET -33.9132 29.2015 117.021
  CHANNELS 6 Xposition Yposition Zposition Zrotation Xrotation Yrotation
  JOINT LeftUpLeg
  {
    OFFSET 8.64259 1.95398 -2.38835
    CHANNELS 3 Zrotation Xrotation Yrotation
    JOINT LeftLeg
    {
      OFFSET 43.7702 0 0
      CHANNELS 3 Zrotation Xrotation Yrotation
      JOINT LeftFoot
      {
        OFFSET 40.6238 0 0
        CHANNELS 3 Zrotation Xrotation Yrotation
        JOINT LeftToeBase
        {
          OFFSET 12.7242 0 0
          CHANNELS 3 Zrotation Xrotation Yrotation
          End Site
          {
            OFFSET 0 0 0
          }
        }
      }
    }
  }
  JOINT RightUpLeg
  {
    OFFSET -8.2249 1.95398 -2.59336
    CHANNELS 3 Zrotation Xrotation Yrotation
    JOINT RightLeg
    {
      OFFSET 43.5653 0 0
      CHANNELS 3 Zrotation Xrotation Yrotation
      JOINT RightFoot
      {
        OFFSET 40.6238 0 0
        CHANNELS 3 Zrotation Xrotation Yrotation
        JOINT RightToeBase
        {
          OFFSET 12.7242 0 0
          CHANNELS 3 Zrotation Xrotation Yrotation
          End Site
          {
            OFFSET 0 0 0
          }
        }
      }
    }
  }
  JOINT Spine
  {
    OFFSET 0.165834 0.87714 6.61349
    CHANNELS 3 Zrotation Xrotation Yrotation
    JOINT Spine1
    {
      OFFSET 7.38963 1.71661e-005 0
      CHANNELS 3 Zrotation Xrotation Yrotation
      JOINT Spine2
      {
        OFFSET 11.9445 1.14441e-005 0
        CHANNELS 3 Zrotation Xrotation Yrotation
        JOINT Spine3
        {
          OFFSET 14.7254 4.19617e-005 0
          CHANNELS 3 Zrotation Xrotation Yrotation
          JOINT Spine4
          {
            OFFSET 10.9679 0 0
            CHANNELS 3 Zrotation Xrotation Yrotation
            JOINT RightShoulder
            {
              OFFSET 2.46616 -1.6653 3.69651
              CHANNELS 3 Zrotation Xrotation Yrotation
              JOINT RightArm
              {
                OFFSET 13.0012 0 0
                CHANNELS 3 Zrotation Xrotation Yrotation
                JOINT RightForeArm
                {
                  OFFSET 28.7848 1.62311e-005 0
                  CHANNELS 3 Zrotation Xrotation Yrotation
                  JOINT RightHand
                  {
                    OFFSET 26.5688 1.62095e-005 0
                    CHANNELS 3 Zrotation Xrotation Yrotation
                    End Site
                    {
                      OFFSET 0 0 0
                    }
                  }
                }
              }
            }
            JOINT LeftShoulder
            {
              OFFSET 2.38034 -1.29275 -3.7523
              CHANNELS 3 Zrotation Xrotation Yrotation
              JOINT LeftArm
              {
                OFFSET 16.3182 6.07031e-005 0
                CHANNELS 3 Zrotation Xrotation Yrotation
                JOINT LeftForeArm
                {
                  OFFSET 27.0901 0 0
                  CHANNELS 3 Zrotation Xrotation Yrotation
                  JOINT LeftHand
                  {
                    OFFSET 24.5451 1.51738e-005 0
                    CHANNELS 3 Zrotation Xrotation Yrotation
                    End Site
                    {
                      OFFSET 0 0 0
                    }
                  }
                }
              }
            }
            JOINT Neck
            {
              OFFSET 5.0226 -0.0266342 0
              CHANNELS 3 Zrotation Xrotation Yrotation
              JOINT Head
              {
                OFFSET 6.69364 2.86102e-005 0
                CHANNELS 3 Zrotation Xrotation Yrotation
                End Site
                {
                  OFFSET 0 0 0
                }
              }
            }
          }
        }
      }
    }
  }
}
MOTION
Frames:	15
Frame Time:	0.0416667
-316.71 96.6367 296.662 -103.506 -44.6812 -102.139 -175.405 -5.14797 88.0149 -11.4118 17.277 0.551664 67.2339 5.16731 0.0678526 12.0913 -13.2072 7.83724 173.227 -3.6698 87.4467 -16.8465 -12.6019 -2.14272 66.7473 -4.36595 -0.609979 27.7181 -0.64355 4.43713 -0.299509 8.90525 -89.6824 9.06434 -0.455494 0.660752 -2.60672 -0.425973 0.680151 -25.1417 -0.633029 0.493315 -5.12903 -0.633005 0.493316 81.8405 -26.4992 -124.656 44.7139 5.54995 -10.5981 -4.42222 -26.5706 -5.03509 -17.3656 1.56532 -15.8802 -84.139 -43.9904 86.8014 -26.0657 -11.3268 -17.0982 -10.6805 9.96988 -0.0285486 10.8051 -1.03769 -13.3001 7.14493 20.1839 4.41563 -4.90686 18.8869 3.7788 
-316.751 96.6537 296.668 -103.451 -44.7654 -102.066 -175.351 -5.12339 88.0871 -11.4547 17.1063 0.528396 67.6652 5.36295 -0.352606 11.4965 -12.9575 6.91111 173.236 -3.79715 87.512 -16.5951 -12.6867 -2.11695 66.7332 -4.40861 -0.804046 27.4598 -0.527825 4.40139 -0.269314 8.88822 -89.7032 9.09822 -0.404401 0.616273 -2.57282 -0.376896 0.633467 -25.1077 -0.570919 0.466246 -5.09508 -0.570928 0.466244 82.1867 -26.6255 -123.899 44.831 5.53069 -10.4627 -4.43419 -26.8179 -5.03908 -17.4161 1.63272 -16.3002 -84.1877 -44.1055 86.7376 -25.6332 -11.1157 -17.5567 -10.9126 9.56403 -0.0285138 10.9311 -1.09443 -13.827 7.38759 20.0017 4.40603 -5.47714 18.6678 3.63561 
-316.874 96.6503 296.728 -103.378 -44.9163 -101.965 -175.263 -5.15826 88.2346 -11.3168 17.4349 0.480704 67.5803 5.35229 -0.130873 12.2907 -12.2457 6.5828 173.336 -4.0225 87.6502 -16.2165 -12.5033 -2.14794 66.7045 -4.37349 -0.811753 27.4973 -0.540489 4.39022 -0.161848 8.8666 -89.7854 9.14096 -0.226775 0.441166 -2.53006 -0.207144 0.450715 -25.0649 -0.348886 0.352609 -5.0523 -0.348886 0.352615 83.6974 -26.3343 -121.109 45.7374 5.07943 -10.5278 -4.47767 -27.7011 -5.0542 -17.444 1.66185 -16.4764 -84.8558 -45.3236 85.8309 -24.4185 -10.7491 -17.6732 -11.1298 10.1052 -0.0285605 10.9934 -1.06713 -13.5193 2.29008 17.6431 7.07236 4.12025 16.6754 3.97032 
-317.102 96.6693 296.863 -103.271 -45.2395 -101.75 -175.082 -5.16747 88.5514 -11.2459 18.0128 0.417412 67.5565 5.33436 -0.0812835 12.7362 -12.106 6.78597 173.388 -4.3464 87.8825 -15.7113 -12.2921 -2.05209 66.6083 -4.35317 -1.05435 27.4094 -0.560475 4.61176 -0.0135765 8.78111 -89.8673 9.31154 0.0325287 0.260545 -2.35942 0.0439578 0.258855 -24.8944 -0.0472812 0.258278 -4.88173 -0.047275 0.258273 85.5924 -26.0624 -117.464 47.3676 4.39861 -10.1781 -4.516 -28.4721 -5.06814 -17.9463 1.72919 -16.5825 -85.9048 -45.9585 84.2612 -23.6451 -10.4223 -17.8437 -11.3777 11.6865 -0.0287126 10.6347 -1.06554 -13.9767 -7.51982 13.0496 9.02165 22.3531 13.67 7.13021 
-317.4 96.6851 297.017 -103.12 -45.6523 -101.395 -174.826 -5.10106 89.0265 -11.3479 18.4874 0.366142 67.9434 5.50212 -0.220547 12.1063 -12.532 6.84253 173.577 -4.90262 88.298 -14.8036 -11.7113 -1.98063 66.5586 -4.36679 -1.0135 27.2094 -0.448311 4.49568 0.152402 8.64193 -89.9545 9.58993 0.324385 0.0652139 -2.08097 0.32694 0.0508618 -24.6164 0.289767 0.159679 -4.60373 0.289787 0.159689 87.5816 -25.9565 -113.448 49.029 3.86321 -9.34466 -4.58219 -29.7754 -5.09329 -18.3524 1.8074 -16.8122 -86.7936 -45.9848 82.8636 -23.5753 -10.1183 -17.527 -11.4948 13.8519 -0.0289596 10.2231 -1.06139 -14.3927 -9.01097 11.8294 8.71026 23.454 12.7756 7.46375 
-317.779 96.7324 297.174 -102.955 -46.0267 -101.025 -174.555 -5.14108 89.5553 -11.2618 19.0573 0.326271 67.9325 5.39166 -0.390737 12.4987 -12.3762 6.97279 173.788 -5.54201 88.7626 -13.8249 -11.2315 -1.91415 66.4601 -4.38216 -1.11635 26.7473 -0.242505 4.43929 0.351083 8.51117 -90.0706 9.85221 0.667899 -0.193629 -1.81858 0.658721 -0.222847 -24.3551 0.695207 0.0160639 -4.34246 0.69521 0.0160575 90.1074 -25.3028 -108.463 51.1059 3.17356 -8.45441 -4.67169 -31.4924 -5.12953 -18.4624 1.92577 -17.4853 -88.0228 -46.9338 81.1152 -22.8974 -10.2251 -17.2109 -11.4594 16.6 -0.0293403 9.31472 -0.970429 -14.5728 -5.14372 12.3771 8.20198 13.5767 12.3273 6.28663 
-318.242 96.7402 297.261 -102.94 -46.2512 -100.576 -174.027 -5.1192 90.4362 -11.5735 19.9559 0.155417 68.1199 5.45664 -0.244801 12.9287 -11.9882 6.78634 174.124 -6.1737 89.4323 -13.1493 -10.5474 -1.8066 66.4145 -4.47468 -0.98596 26.5428 -0.15653 4.43557 0.587906 8.42909 -90.2449 10.0186 1.06027 -0.57372 -1.65203 1.03401 -0.619841 -24.1904 1.18366 -0.228502 -4.1778 1.18369 -0.228514 93.103 -23.799 -102.555 53.6525 2.17473 -7.8816 -4.81246 -34.0861 -5.19171 -19.42 2.04206 -17.5426 -89.6031 -48.4312 78.9904 -21.7148 -9.89508 -17.3942 -11.7584 18.7434 -0.0296921 8.99575 -0.953369 -14.9415 1.41734 12.6594 8.39121 0.771768 11.3007 1.54618 
-318.745 96.6861 297.274 -102.865 -46.5358 -100.197 -173.838 -4.91666 91.0157 -12.0875 20.4227 0.312416 68.7172 5.75029 -0.210217 12.9683 -12.2517 7.22586 174.109 -6.34235 89.8933 -13.0889 -10.5277 -1.42863 66.5754 -4.87021 -1.34127 26.581 -0.152756 4.3608 0.799556 8.30136 -90.3498 10.2762 1.43322 -0.818139 -1.39431 1.39581 -0.880444 -23.9352 1.61278 -0.349498 -3.9226 1.6128 -0.349506 95.854 -22.3021 -96.8082 56.2867 1.26246 -7.02921 -4.91306 -35.8526 -5.24005 -19.3873 2.06807 -17.7202 -90.8512 -48.6666 77.1469 -21.5369 -9.52143 -17.0634 -11.9491 21.6032 -0.0302418 9.21925 -0.98774 -15.339 5.51317 11.6789 8.29052 -7.83691 10.1108 -3.30338 
-319.324 96.6681 297.273 -102.987 -47.4333 -99.8575 -172.947 -4.48391 92.3137 -12.7327 21.8259 -0.179039 69.4116 6.15399 -0.4411 12.49 -12.387 6.98159 174.304 -7.25865 90.6179 -11.8208 -9.31216 -1.07401 66.3213 -4.78062 -1.09539 26.5648 -0.255774 4.77752 1.00928 8.20138 -90.5238 10.4802 1.77014 -1.19776 -1.19019 1.71569 -1.27452 -23.7335 2.04824 -0.610244 -3.72086 2.04822 -0.610255 98.962 -20.4147 -89.8674 58.8555 0.394054 -6.20575 -5.06325 -38.3605 -5.31694 -19.7339 2.0715 -17.509 -92.3981 -50.0868 75.1771 -20.2661 -8.79062 -17.3359 -12.3256 24.0367 -0.0307871 8.11966 -0.884432 -15.8296 5.73322 8.99456 9.28615 -9.45433 7.41991 -5.35298 
-319.922 96.6647 297.427 -102.321 -48.1159 -99.4371 -172.759 -4.37833 92.6518 -12.2099 23.1326 -0.354902 69.2519 6.22528 0.0324508 12.9667 -12.2466 7.21595 174.508 -7.48454 90.9203 -11.0019 -8.37123 -1.03358 66.3666 -4.59031 -0.744901 26.4775 -0.200467 4.70404 1.25269 8.09487 -90.6313 10.698 2.20411 -1.45689 -0.971987 2.13786 -1.55251 -23.52 2.54 -0.726832 -3.50736 2.54001 -0.726835 101.662 -18.3033 -83.4058 60.7901 -0.0526322 -5.16201 -5.37867 -43.1424 -5.49743 -20.8111 2.24915 -17.826 -93.8767 -51.807 73.4558 -19.2022 -8.10224 -18.1416 -12.7024 27.373 -0.0244203 7.16443 -0.795328 -16.7055 6.57572 5.70574 10.525 -10.4025 4.04147 -7.41192 
-320.465 96.6289 297.559 -101.424 -48.7681 -98.5526 -172.506 -3.86837 93.237 -12.0871 23.7683 -0.470551 69.515 6.34548 -0.153721 13.3373 -12.1296 7.38782 174.9 -7.81032 91.5432 -9.64746 -7.53351 -0.963781 66.1528 -4.50588 -0.674629 26.5088 -0.202927 4.66446 1.44527 7.96583 -90.6856 10.9604 2.56005 -1.60724 -0.709172 2.48685 -1.71839 -23.2621 2.92466 -0.763076 -3.24949 2.92463 -0.763085 103.637 -16.7685 -78.3452 62.632 -0.589041 -4.4705 -5.57328 -45.7814 -5.61913 -21.1437 2.24276 -17.5783 -94.7362 -52.104 72.294 -19.5806 -8.13298 -17.9477 -12.5225 29.8148 -0.0317215 6.18802 -0.632742 -16.6835 7.58583 1.64033 11.2564 -11.7871 0.0923224 -10.1843 
-320.95 96.5994 297.632 -100.776 -49.333 -97.8383 -172.227 -3.48849 93.8124 -11.9743 24.6408 -0.613378 69.7779 6.54648 -0.00681522 13.0561 -12.2135 7.25002 175.146 -8.25077 92.0513 -8.34759 -7.04718 -0.792183 65.9413 -4.48043 -0.711126 26.2923 -0.099184 4.61067 1.59997 7.8663 -90.7732 11.1641 2.82537 -1.81492 -0.505261 2.74276 -1.93755 -23.0619 3.24009 -0.881256 -3.04925 3.2401 -0.881269 105.283 -14.56 -73.6774 64.537 -1.2405 -3.99314 -5.69106 -47.2721 -5.69671 -21.9253 2.37344 -17.8035 -95.7057 -52.8985 71.1291 -19.2688 -7.74454 -18.571 -12.8302 31.272 -0.0306668 6.4768 -0.674592 -17.1763 8.23406 -2.12264 12.0282 -12.3755 -3.63748 -11.8871 
-321.418 96.5688 297.677 -99.8801 -49.7684 -96.8839 -172.203 -3.03074 94.2306 -11.8681 25.0811 -0.472332 69.8792 6.60818 0.0999876 13.6228 -12.137 7.67175 175.855 -8.55207 92.8899 -6.92127 -6.0254 -0.978171 65.5578 -4.24736 -0.699033 26.1108 -0.0980603 4.88663 1.73763 7.77289 -90.8438 11.3552 3.06436 -1.98735 -0.313902 2.97397 -2.12035 -22.8742 3.51982 -0.97374 -2.86153 3.51981 -0.973735 106.464 -12.8696 -70.0747 65.9321 -1.78068 -3.77726 -5.90338 -49.7676 -5.84211 -22.7507 2.46662 -17.7926 -96.3195 -52.8874 70.2508 -19.5408 -7.57378 -18.6437 -12.8587 32.6601 -0.0240014 6.4995 -0.658409 -17.1664 9.32248 -4.5245 12.4508 -13.3865 -5.95508 -13.4107 
-321.812 96.5738 297.71 -99.518 -49.9291 -96.2912 -171.97 -2.90178 94.7922 -11.8182 25.3363 -0.465043 70.109 6.68724 -0.0901099 13.4595 -12.3237 7.80215 175.756 -8.40489 93.2155 -7.09866 -6.16148 -0.487622 65.7022 -4.64624 -1.20465 25.6397 0.0627061 5.00801 1.86594 7.72207 -90.9063 11.461 3.28924 -2.13932 -0.20775 3.19193 -2.28206 -22.7718 3.77994 -1.05091 -2.75917 3.77995 -1.05091 107.376 -11.6638 -67.1386 67.0681 -2.08396 -3.33804 -6.04826 -51.3409 -5.94551 -23.3542 2.49572 -17.5926 -96.7363 -53.26 69.7705 -18.6572 -7.2866 -19.2498 -13.0706 32.4676 -0.044055 6.62934 -0.613225 -16.4026 9.79811 -5.88403 12.5453 -13.7517 -7.31067 -13.4827 
-322.202 96.5872 297.602 -99.5944 -50.4608 -95.958 -171.444 -2.49267 95.71 -12.2221 26.6106 -0.721127 69.9782 6.65211 0.122344 14.0466 -11.8799 7.6808 176.726 -8.45792 94.3967 -7.13991 -4.68113 -0.855987 65.8311 -4.56067 -1.02383 24.7426 0.623397 4.33444 1.91743 7.67965 -90.982 11.5488 3.35508 -2.30159 -0.120069 3.25057 -2.44707 -22.6844 3.89148 -1.18589 -2.67176 3.89148 -1.18589 107.898 -11.0689 -65.4371 67.4161 -1.92835 -2.72669 -6.1282 -52.1664 -6.00381 -22.5746 2.55045 -18.3254 -97.2211 -53.3181 69.1027 -18.5798 -7.39524 -19.675 -13.0439 33.0875 -0.0278422 6.13408 -0.565954 -16.7697 9.99092 -6.15846 13.1603 -14.4304 -7.57967 -14.3044 
